<svg width="42" height="46" viewBox="0 0 42 46" fill="none" xmlns="http://www.w3.org/2000/svg">
<path d="M35.82 1.73C34.0821 0.628635 32.0675 0.042635 30.01 0.0399958C28.2316 0.0585295 26.4822 0.493304 24.9019 1.30947C23.3217 2.12563 21.9546 3.30051 20.91 4.74001C19.8671 3.29878 18.5003 2.12262 16.9197 1.30626C15.3391 0.489907 13.5889 0.0561684 11.81 0.0399958C9.74254 0.0386019 7.71723 0.624696 5.97002 1.73C0.390017 5.21 -1.51998 12.92 1.70002 18.94C4.33002 23.86 15.42 32.4 19.43 35.38C19.8492 35.6917 20.3576 35.86 20.88 35.86C21.4024 35.86 21.9108 35.6917 22.33 35.38C26.33 32.38 37.43 23.86 40.06 18.94C43.28 12.91 41.37 5.2 35.82 1.73ZM38.43 18.06C36.43 21.74 28.26 28.64 21.24 33.87C21.1445 33.9408 21.0289 33.9793 20.91 33.98C20.7942 33.9793 20.6818 33.9407 20.59 33.87C13.59 28.64 5.37002 21.74 3.40002 18.06C0.640017 12.89 2.26002 6.29 7.00002 3.33C8.4399 2.42053 10.107 1.93532 11.81 1.93001C13.296 1.943 14.7579 2.30659 16.0768 2.99123C17.3956 3.67587 18.5343 4.66223 19.4 5.87001L20.91 7.87001L22.42 5.87001C23.2857 4.66223 24.4244 3.67587 25.7433 2.99123C27.0622 2.30659 28.5241 1.943 30.01 1.93001C31.7131 1.93532 33.3801 2.42053 34.82 3.33C39.54 6.28 41.16 12.88 38.4 18.05L38.43 18.06Z" fill="#4D4D4F"/>
<path d="M23.82 42.62C23.8259 43.1979 23.6602 43.7646 23.3439 44.2483C23.0275 44.7319 22.5748 45.1108 22.0429 45.337C21.5111 45.5632 20.9241 45.6265 20.3563 45.5188C19.7885 45.4112 19.2654 45.1375 18.8532 44.7323C18.441 44.3272 18.1584 43.8088 18.041 43.2429C17.9236 42.677 17.9768 42.089 18.1939 41.5534C18.4109 41.0178 18.782 40.5586 19.2602 40.234C19.7383 39.9094 20.3021 39.734 20.88 39.73C21.6527 39.7247 22.3961 40.0259 22.9471 40.5676C23.4982 41.1093 23.8121 41.8473 23.82 42.62V42.62Z" fill="#F05161"/>
</svg>
