<svg width="24" height="24" viewBox="0 0 24 24" fill="none" xmlns="http://www.w3.org/2000/svg">
<path fill-rule="evenodd" clip-rule="evenodd" d="M17.6007 7.94191H6.47927C5.84559 7.94191 5.32113 8.43461 5.2816 9.06705L4.80842 16.638C4.6573 19.056 6.57759 21.1 9.00024 21.1H15.0797C17.5023 21.1 19.4226 19.056 19.2715 16.638L18.7983 9.06705C18.7588 8.43461 18.2343 7.94191 17.6007 7.94191ZM6.47927 6.14191C4.89508 6.14191 3.58393 7.37367 3.48511 8.95477L3.01192 16.5257C2.79604 19.9799 5.53931 22.9 9.00024 22.9H15.0797C18.5406 22.9 21.2839 19.9799 21.068 16.5257L20.5948 8.95477C20.496 7.37367 19.1849 6.14191 17.6007 6.14191H6.47927Z" fill="black"/>
<path fill-rule="evenodd" clip-rule="evenodd" d="M12.2761 2.8C11.0812 2.8 10.1125 3.76867 10.1125 4.96359V6.1419H8.3125V4.96359C8.3125 2.77456 10.0871 1 12.2761 1C14.4651 1 16.2397 2.77456 16.2397 4.96359V6.1419H14.4397V4.96359C14.4397 3.76867 13.471 2.8 12.2761 2.8Z" fill="black"/>
<path fill-rule="evenodd" clip-rule="evenodd" d="M12.2757 12.3117C13.4706 12.3117 14.4393 11.3431 14.4393 10.1481L14.4393 9.91247C14.4393 9.41542 14.8422 9.01247 15.3393 9.01247C15.8363 9.01247 16.2393 9.41542 16.2393 9.91247L16.2393 10.1481C16.2393 12.3372 14.4647 14.1117 12.2757 14.1117C10.0866 14.1117 8.31208 12.3372 8.31208 10.1481L8.31208 9.91247C8.31208 9.41542 8.71502 9.01247 9.21208 9.01247C9.70913 9.01247 10.1121 9.41542 10.1121 9.91247L10.1121 10.1481C10.1121 11.3431 11.0807 12.3117 12.2757 12.3117Z" fill="black"/>
</svg>
