<svg width="40" height="40" viewBox="0 0 40 40" fill="none" xmlns="http://www.w3.org/2000/svg">
<path d="M35.99 21.77V32.6C35.9913 32.8898 35.9354 33.1769 35.8254 33.445C35.7154 33.7131 35.5536 33.9568 35.3492 34.1621C35.1448 34.3675 34.9018 34.5304 34.6342 34.6416C34.3666 34.7528 34.0798 34.81 33.79 34.81H25.11C24.5239 34.81 23.9618 34.5772 23.5473 34.1627C23.1328 33.7483 22.9 33.1862 22.9 32.6V26.04C22.9 25.2683 22.5934 24.5281 22.0477 23.9823C21.5019 23.4366 20.7618 23.13 19.99 23.13C19.2182 23.13 18.4781 23.4366 17.9323 23.9823C17.3866 24.5281 17.08 25.2683 17.08 26.04V32.6C17.0813 32.8898 17.0254 33.1769 16.9154 33.445C16.8054 33.7131 16.6436 33.9568 16.4392 34.1621C16.2348 34.3675 15.9918 34.5304 15.7242 34.6416C15.4566 34.7528 15.1698 34.81 14.88 34.81H6.2C5.61561 34.8074 5.05605 34.5734 4.64375 34.1592C4.23146 33.745 3.99999 33.1844 4 32.6V21.77C3.99958 20.7961 4.3842 19.8615 5.07 19.17L18.54 5.60003C18.732 5.40895 18.9597 5.2576 19.2103 5.15464C19.4608 5.05169 19.7291 4.99915 20 5.00003C20.268 4.99847 20.5335 5.05077 20.7809 5.15384C21.0283 5.25691 21.2524 5.40865 21.44 5.60003L34.92 19.17C35.2618 19.5108 35.5325 19.9162 35.7162 20.3626C35.8999 20.8089 35.9929 21.2874 35.99 21.77Z" fill="#4D4D4F"/>
</svg>
