<svg width="22" height="22" viewBox="0 0 22 22" fill="none" xmlns="http://www.w3.org/2000/svg">
<g clip-path="url(#clip0_1_7347)">
<path d="M16.85 22.06H4.24997C3.69018 22.066 3.13482 21.9602 2.61647 21.7487C2.09811 21.5373 1.6272 21.2245 1.23134 20.8286C0.835487 20.4328 0.522661 19.9618 0.311211 19.4435C0.0997616 18.9251 -0.00605462 18.3698 -3.12344e-05 17.81V5.20999C-0.00605462 4.6502 0.0997616 4.09484 0.311211 3.57649C0.522661 3.05813 0.835487 2.58722 1.23134 2.19136C1.6272 1.79551 2.09811 1.48268 2.61647 1.27123C3.13482 1.05978 3.69018 0.953967 4.24997 0.959991H11.5C11.6989 0.959991 11.8896 1.03901 12.0303 1.17966C12.171 1.32031 12.25 1.51108 12.25 1.70999C12.25 1.9089 12.171 2.09967 12.0303 2.24032C11.8896 2.38097 11.6989 2.45999 11.5 2.45999H4.24997C3.88791 2.45665 3.52881 2.52551 3.19365 2.66252C2.8585 2.79954 2.55402 3.00198 2.29799 3.25801C2.04196 3.51404 1.83952 3.81852 1.7025 4.15368C1.56548 4.48883 1.49663 4.84793 1.49997 5.20999V17.81C1.49663 18.1721 1.56548 18.5312 1.7025 18.8663C1.83952 19.2015 2.04196 19.5059 2.29799 19.762C2.55402 20.018 2.8585 20.2204 3.19365 20.3575C3.52881 20.4945 3.88791 20.5633 4.24997 20.56H16.85C17.212 20.5633 17.5711 20.4945 17.9063 20.3575C18.2414 20.2204 18.5459 20.018 18.802 19.762C19.058 19.5059 19.2604 19.2015 19.3974 18.8663C19.5345 18.5312 19.6033 18.1721 19.6 17.81V10.56C19.6 10.3611 19.679 10.1703 19.8196 10.0297C19.9603 9.88901 20.1511 9.80999 20.35 9.80999C20.5489 9.80999 20.7397 9.88901 20.8803 10.0297C21.021 10.1703 21.1 10.3611 21.1 10.56V17.81C21.106 18.3698 21.0002 18.9251 20.7887 19.4435C20.5773 19.9618 20.2645 20.4328 19.8686 20.8286C19.4727 21.2245 19.0018 21.5373 18.4835 21.7487C17.9651 21.9602 17.4098 22.066 16.85 22.06Z" fill="#262626"/>
<path d="M8.74999 17.4097H5.39999C5.20108 17.4097 5.01032 17.3307 4.86966 17.19C4.72901 17.0494 4.64999 16.8586 4.64999 16.6597V13.3097C4.65017 13.1108 4.7293 12.9202 4.86999 12.7797L17.05 0.629679C17.4657 0.2235 18.0238 -0.00390625 18.605 -0.00390625C19.1862 -0.00390625 19.7443 0.2235 20.16 0.629679L21.41 1.87968C21.8162 2.29537 22.0436 2.85349 22.0436 3.43468C22.0436 4.01587 21.8162 4.57399 21.41 4.98968L9.25999 17.1897C9.12441 17.3256 8.94188 17.4043 8.74999 17.4097ZM6.14999 15.9097H8.43999L20.37 3.90968C20.4984 3.77487 20.57 3.59584 20.57 3.40968C20.57 3.22352 20.4984 3.04449 20.37 2.90968L19.12 1.65968C18.9852 1.53129 18.8062 1.45968 18.62 1.45968C18.4338 1.45968 18.2548 1.53129 18.12 1.65968L6.11999 13.5897L6.14999 15.9097Z" fill="#262626"/>
<path d="M19.1 7.01001C18.9982 7.01231 18.897 6.99401 18.8025 6.9562C18.708 6.9184 18.6221 6.86186 18.55 6.79001L15.27 3.51001C15.1375 3.36783 15.0654 3.17979 15.0688 2.98549C15.0722 2.79119 15.151 2.6058 15.2884 2.46839C15.4258 2.33098 15.6112 2.25226 15.8055 2.24884C15.9998 2.24541 16.1878 2.31753 16.33 2.45001L19.63 5.75001C19.7001 5.8193 19.7558 5.90183 19.7938 5.99281C19.8318 6.08379 19.8514 6.18141 19.8514 6.28001C19.8514 6.37861 19.8318 6.47623 19.7938 6.56721C19.7558 6.65819 19.7001 6.74072 19.63 6.81001C19.486 6.94294 19.2959 7.01466 19.1 7.01001Z" fill="#262626"/>
</g>
<defs>
<clipPath id="clip0_1_7347">
<rect width="22" height="22" fill="white"/>
</clipPath>
</defs>
</svg>
